<svg xmlns="http://www.w3.org/2000/svg" width="64" height="64" fill="none" viewBox="0 0 64 64"><circle cx="32" cy="32" r="32" fill="#06F"/><path fill="#fff" d="M32 8 C42 8 50 16 50 26 C50 36 42 44 32 44 C22 44 14 36 14 26 C14 16 22 8 32 8 Z" opacity=".2"/><path fill="#fff" d="M32 12 C40 12 46 18 46 26 C46 34 40 40 32 40 C24 40 18 34 18 26 C18 18 24 12 32 12 Z" opacity=".3"/><path fill="#fff" d="M32 16 C38 16 42 20 42 26 C42 32 38 36 32 36 C26 36 22 32 22 26 C22 20 26 16 32 16 Z" opacity=".5"/><path fill="#fff" d="M32 20 C36 20 38 22 38 26 C38 30 36 32 32 32 C28 32 26 30 26 26 C26 22 28 20 32 20 Z" opacity=".7"/><circle cx="32" cy="26" r="4" fill="#fff" opacity=".9"/><circle cx="32" cy="26" r="2" fill="#06F"/></svg>