<svg width="300" height="60" viewBox="0 0 300 60" fill="none" xmlns="http://www.w3.org/2000/svg">
  <!-- Spiral Icon -->
  <circle cx="30" cy="30" r="28" fill="#0066FF"/>
  <path d="M30 10 Q40 15 40 25 Q40 35 30 40 Q20 35 20 25 Q20 15 30 10 Z" fill="white" opacity="0.9"/>
  <path d="M30 15 Q35 18 35 25 Q35 32 30 35 Q25 32 25 25 Q25 18 30 15 Z" fill="white" opacity="0.7"/>
  <path d="M30 20 Q32 22 32 25 Q32 28 30 30 Q28 28 28 25 Q28 22 30 20 Z" fill="white" opacity="0.5"/>
  <circle cx="30" cy="25" r="3" fill="white"/>
  
  <!-- OneArcade Text -->
  <text x="70" y="40" font-family="Arial, sans-serif" font-size="28" font-weight="bold" fill="#0066FF">One</text>
  <text x="130" y="40" font-family="Arial, sans-serif" font-size="28" font-weight="bold" fill="#FFFFFF">Arcade</text>
</svg>
