<svg xmlns="http://www.w3.org/2000/svg" width="300" height="60" fill="none" viewBox="0 0 300 60"><circle cx="30" cy="30" r="28" fill="#FFF"/><path fill="#06F" d="M30 10 Q40 15 40 25 Q40 35 30 40 Q20 35 20 25 Q20 15 30 10 Z" opacity=".9"/><path fill="#06F" d="M30 15 Q35 18 35 25 Q35 32 30 35 Q25 32 25 25 Q25 18 30 15 Z" opacity=".7"/><path fill="#06F" d="M30 20 Q32 22 32 25 Q32 28 30 30 Q28 28 28 25 Q28 22 30 20 Z" opacity=".5"/><circle cx="30" cy="25" r="3" fill="#06F"/><text x="70" y="40" fill="#FFF" font-family="Arial, sans-serif" font-size="28" font-weight="bold">OneArcade</text></svg>